<svg height="512" viewBox="0 0 64 64" width="512" xmlns="http://www.w3.org/2000/svg"><path d="m38 37.58v17.42h-34v-17.42a6.015 6.015 0 0 1 4.18-5.72c.08-.02.16-.05.24-.07l6.19-1.8.03.1 6.36 10.91 6.36-10.91.03-.1 6.19 1.8c.08.02.16.05.24.07a5.248 5.248 0 0 1 1.18.53 6.038 6.038 0 0 1 3 5.19z" fill="#3d9ae2"/><rect fill="#00ccb3" height="20" rx="1" width="14" x="24" y="39"/><path d="m25 39a1 1 0 0 0 -1 1v15h-2v-15a1 1 0 0 1 1-1z" fill="#1e81ce"/><path d="m30 51h2v4h-2z" fill="#ff9811"/><path d="m28 51h2v4h-2z" fill="#ff9811"/><path d="m37 34.28a5.847 5.847 0 0 0 -2-1.89v6.61h2z" fill="#1e81ce"/><path d="m35 39 1 4v16h1a1 1 0 0 0 1-1v-15l-1-4z" fill="#00b39d"/><path d="m27.39 29.99-.03.1-6.36 10.91-6.36-10.91-.03-.1 3.39-.99v-2.58a8.049 8.049 0 0 0 6 0v2.58z" fill="#ffb655"/><path d="m24 26.42v1a8.049 8.049 0 0 1 -6 0v-1a8.049 8.049 0 0 0 6 0z" fill="#ffa733"/><path d="m28.47 15h.53v4a8.008 8.008 0 0 1 -5 7.42 8 8 0 0 1 -11-7.42v-4h2.86a9.991 9.991 0 0 0 7.07-2.93l1.07-1.07.89 1.79a4.02 4.02 0 0 0 3.58 2.21z" fill="#ffc477"/><path d="m31 13v8.68a6.97 6.97 0 0 1 4 6.32 6.824 6.824 0 0 1 -1.18 3.86c-.08-.02-.16-.05-.24-.07l-6.19-1.8-3.39-.99v-2.58a8.008 8.008 0 0 0 5-7.42v-4h-.53a4.02 4.02 0 0 1 -3.58-2.21l-.89-1.79-1.07 1.07a9.991 9.991 0 0 1 -7.07 2.93h-2.86v4a8.014 8.014 0 0 0 2.34 5.66 8.124 8.124 0 0 0 2.66 1.76v2.58l-3.39.99-6.19 1.8c-.08.02-.16.05-.24.07a6.824 6.824 0 0 1 -1.18-3.86 6.97 6.97 0 0 1 4-6.32v-8.68a10 10 0 0 1 20 0z" fill="#787680"/><path d="m59 30v9l-1 4v17a1 1 0 0 1 -1 1h-18a1 1 0 0 1 -1-1v-17l-1-4v-9a1 1 0 0 1 1-1h20a1 1 0 0 1 1 1z" fill="#ff6243"/><path d="m46 53h4v4h-4z" fill="#ee8700"/><g fill="#ffa733"><path d="m42 45h4v4h-4z"/><path d="m42 53h4v4h-4z"/><path d="m46 49h4v4h-4z"/></g><path d="m46 45h4v4h-4z" fill="#ee8700"/><path d="m42 49h4v4h-4z" fill="#ee8700"/><path d="m50 45h4v4h-4z" fill="#ffa733"/><path d="m56 13v16h-16v-16l2.67 2 2.67-2 2.67 2 2.66-2 2.67 2z" fill="#e6e7e8"/><path d="m41 33h14v8h-14z" fill="#ffd422"/><path d="m50 49h4v4h-4z" fill="#ee8700"/><path d="m50 53h4v4h-4z" fill="#ffa733"/><path d="m42 58h12a1 1 0 0 0 1-1v-12a1 1 0 0 0 -1-1h-12a1 1 0 0 0 -1 1v12a1 1 0 0 0 1 1zm1-2v-2h2v2zm4 0v-2h2v2zm6 0h-2v-2h2zm-2-10h2v2h-2zm2 4v2h-2v-2zm-6-4h2v2h-2zm2 4v2h-2v-2zm-6-4h2v2h-2zm2 4v2h-2v-2z"/><path d="m58 28h-1v-15a1 1 0 0 0 -1.6-.8l-2.063 1.55-2.064-1.55a1 1 0 0 0 -1.2 0l-2.066 1.55-2.066-1.55a1 1 0 0 0 -1.2 0l-2.071 1.55-2.07-1.55a1 1 0 0 0 -1.6.8v15h-1a2 2 0 0 0 -2 2v1.86a6.958 6.958 0 0 0 -.757-.481 7.974 7.974 0 0 0 -3.243-10.304v-8.075a11 11 0 0 0 -22 0v8.075a7.975 7.975 0 0 0 -3.242 10.307 6.985 6.985 0 0 0 -3.758 6.198v17.42a1 1 0 0 0 1 1h19v2a2 2 0 0 0 2 2h12a2 2 0 0 0 2 2h18a2 2 0 0 0 2-2v-16.877l.97-3.88a1 1 0 0 0 .03-.243v-9a2 2 0 0 0 -2-2zm-27.427-5.416a5.937 5.937 0 0 1 3.427 5.416 5.849 5.849 0 0 1 -.652 2.681l-8.348-2.431v-1.2a9 9 0 0 0 5-8.05v2.68a1 1 0 0 0 .573.904zm-11.573 6.416v-1.232a8.737 8.737 0 0 0 4 0v1.232a1 1 0 0 0 .72.96l2.187.637-4.907 8.417-4.907-8.414 2.187-.637a1 1 0 0 0 .72-.963zm-5-10v-3h1.858a10.927 10.927 0 0 0 7.778-3.222l.09-.09.274.548a4.967 4.967 0 0 0 4 2.742v3.022a7 7 0 0 1 -14 0zm-2-6a9 9 0 0 1 18 0v2a1 1 0 0 0 -1-1h-.528a2.982 2.982 0 0 1 -2.683-1.658l-.889-1.789a1 1 0 0 0 -.735-.54 1.016 1.016 0 0 0 -.867.28l-1.071 1.071a8.941 8.941 0 0 1 -6.369 2.636h-2.858a1 1 0 0 0 -1 1zm-.573 9.584a1 1 0 0 0 .573-.9v-2.684a9 9 0 0 0 5 8.05v1.2l-8.348 2.431a5.849 5.849 0 0 1 -.652-2.681 5.937 5.937 0 0 1 3.427-5.416zm11.573 17.416v14h-10v-4.5a1 1 0 0 0 -.533-.884 5.552 5.552 0 0 1 0-9.232 1 1 0 0 0 .533-.884v-2.5h-2v1.936a7.629 7.629 0 0 0 0 12.128v3.936h-6v-16.42a4.988 4.988 0 0 1 3.424-4.75l5.69-1.657 6.022 10.327a1 1 0 0 0 1.728 0l1.252-2.148a1.975 1.975 0 0 0 -.116.648zm.511-1.322 4.375-7.5 5.628 1.639a4.981 4.981 0 0 1 2.486 1.802v3.381h-11a1.986 1.986 0 0 0 -1.489.678zm13.489 19.322h-12v-18h11.219l.781 3.123zm4-43 1.071.8a1 1 0 0 0 1.2 0l2.07-1.55 2.067 1.55a1 1 0 0 0 1.2 0l2.066-1.55 2.065 1.55a1 1 0 0 0 1.2 0l1.061-.8v13h-14zm17 23.877-.97 3.88a1 1 0 0 0 -.03.243v17h-18v-17a1 1 0 0 0 -.03-.243l-.97-3.88v-8.877h20z"/><path d="m41 42h14a1 1 0 0 0 1-1v-8a1 1 0 0 0 -1-1h-14a1 1 0 0 0 -1 1v8a1 1 0 0 0 1 1zm1-8h12v6h-12z"/><path d="m43 19h6v2h-6z"/><path d="m51 19h2v2h-2z"/><path d="m43 23h6v2h-6z"/><path d="m51 23h2v2h-2z"/><path d="m45 36h2v2h-2z"/><path d="m49 36h2v2h-2z"/><path d="m21 22a2 2 0 0 1 -2-2h-2a4 4 0 0 0 8 0h-2a2 2 0 0 1 -2 2z"/><path d="m32 50h-4a1 1 0 0 0 -1 1v4a1 1 0 0 0 1 1h4a1 1 0 0 0 1-1v-4a1 1 0 0 0 -1-1zm-1 4h-2v-2h2z"/><path d="m27 46h2v2h-2z"/><path d="m27 42h2v2h-2z"/><path d="m31 42h2v6h-2z"/></svg>