<svg id="Layer_2" enable-background="new 0 0 96 96" height="512" viewBox="0 0 96 96" width="512" xmlns="http://www.w3.org/2000/svg"><path d="m3 3h90v88h-90z" fill="#f2ae40"/><path d="m11 58h74v11h-74z" fill="#9c9b9a"/><path d="m10 9h58v39h-58z" fill="#ddd"/><g fill="#dfdddc"><path d="m73 9h12v6h-12z"/><path d="m73 20h12v6h-12z"/><path d="m73 31h12v6h-12z"/><path d="m73 42h12v6h-12z"/></g><path d="m15 63h66v22h-66z" fill="#ddd"/><path d="m15 85h66v4h-66z" fill="#dfdddc"/><path d="m15 89h66v4h-66z" fill="#c9c7c6"/><path d="m20 63v13c2.211 0 4 1.789 4 4h48c0-2.211 1.789-4 4-4v-13z" fill="#6ebaed"/><path d="m35 27v10h-3l7 7 7-7h-3v-10z" fill="#6ebaed"/><circle cx="39" cy="21" fill="#6ebaed" r="8"/><path d="m93 2h-90c-.552 0-1 .447-1 1v6c0 .553.448 1 1 1h6v38c0 .553.448 1 1 1h58c.552 0 1-.447 1-1v-39c0-.553-.448-1-1-1h-64v-4h88v86h-10v-21h3c.552 0 1-.447 1-1v-10c0-.553-.448-1-1-1h-74c-.552 0-1 .447-1 1v11c0 .553.448 1 1 1h4c.552 0 1-.447 1-1v-5h3v12c0 .553.448 1 1 1 1.654 0 3 1.346 3 3 0 .553.448 1 1 1h48c.552 0 1-.447 1-1 0-1.654 1.346-3 3-3 .552 0 1-.447 1-1v-9c0-.553-.448-1-1-1s-1 .447-1 1v8.101c-1.956.398-3.501 1.943-3.899 3.899h-46.202c-.398-1.956-1.943-3.501-3.899-3.899v-11.101h22.184c-.112.314-.184.648-.184 1v2c0 1.654 1.346 3 3 3h4c.551 0 1 .448 1 1v2c0 .552-.449 1-1 1h-4c-.551 0-1-.448-1-1 0-.553-.448-1-1-1s-1 .447-1 1c0 1.654 1.346 3 3 3h1v1c0 .553.448 1 1 1s1-.447 1-1v-1h1c1.654 0 3-1.346 3-3v-2c0-1.654-1.346-3-3-3h-4c-.551 0-1-.448-1-1v-2c0-.552.449-1 1-1h4c.551 0 1 .448 1 1 0 .553.448 1 1 1s1-.447 1-1c0-.352-.072-.686-.184-1h27.184v20h-64v-11c0-.553-.448-1-1-1s-1 .447-1 1v17h-10v-77c0-.553-.448-1-1-1s-1 .447-1 1v78c0 .553.448 1 1 1h11v1c0 .553.448 1 1 1h66c.552 0 1-.447 1-1v-1h11c.552 0 1-.447 1-1v-88c0-.553-.448-1-1-1zm-82 8h56v37h-56zm69 82h-64v-2h64zm0-4h-64v-2h64zm1-26h-66c-.552 0-1 .447-1 1v5h-2v-9h72v8h-2v-4c0-.553-.448-1-1-1z"/><path d="m73 16h12c.552 0 1-.447 1-1v-6c0-.553-.448-1-1-1h-12c-.552 0-1 .447-1 1v6c0 .553.448 1 1 1zm1-6h10v4h-10z"/><path d="m72 26c0 .553.448 1 1 1h12c.552 0 1-.447 1-1v-6c0-.553-.448-1-1-1h-12c-.552 0-1 .447-1 1zm2-5h10v4h-10z"/><path d="m72 37c0 .553.448 1 1 1h12c.552 0 1-.447 1-1v-6c0-.553-.448-1-1-1h-12c-.552 0-1 .447-1 1zm2-5h10v4h-10z"/><path d="m72 48c0 .553.448 1 1 1h12c.552 0 1-.447 1-1v-6c0-.553-.448-1-1-1h-12c-.552 0-1 .447-1 1zm2-5h10v4h-10z"/><path d="m61 53c0 .553.448 1 1 1h23c.552 0 1-.447 1-1s-.448-1-1-1h-23c-.552 0-1 .447-1 1z"/><circle cx="58" cy="53" r="1"/><circle cx="54" cy="53" r="1"/><circle cx="50" cy="53" r="1"/><circle cx="67" cy="69" r="1"/><circle cx="29" cy="69" r="1"/><path d="m48 21c0-4.963-4.038-9-9-9s-9 4.037-9 9 4.038 9 9 9c.552 0 1-.447 1-1s-.448-1-1-1c-3.86 0-7-3.141-7-7s3.14-7 7-7 7 3.141 7 7c0 2.484-1.342 4.805-3.501 6.056-.309.178-.499.508-.499.865v9.079c0 .553.448 1 1 1h.586l-4.586 4.586-4.586-4.586h.586c.552 0 1-.447 1-1v-4c0-.553-.448-1-1-1s-1 .447-1 1v3h-2c-.404 0-.769.243-.924.617s-.069.804.217 1.09l7 7c.195.195.451.293.707.293s.512-.098.707-.293l7-7c.286-.286.372-.716.217-1.09s-.52-.617-.924-.617h-2v-7.525c2.481-1.663 4-4.476 4-7.475z"/><path d="m42.707 18.293c-.391-.391-1.023-.391-1.414 0l-4.293 4.293-1.293-1.293c-.391-.391-1.023-.391-1.414 0s-.391 1.023 0 1.414l2 2c.195.195.451.293.707.293s.512-.098.707-.293l5-5c.391-.391.391-1.023 0-1.414z"/></svg>