<svg id="Layer_5" enable-background="new 0 0 64 64" height="512" viewBox="0 0 64 64" width="512" xmlns="http://www.w3.org/2000/svg"><circle cx="17" cy="47" fill="#aab2bd" r="15"/><path d="m26.06 44.4c-.3 1.54.59 2.93 1.91 3.42-.42 5.69-5.17 10.18-10.97 10.18-6.08 0-11-4.92-11-11s4.92-11 11-11c4.54 0 8.45 2.76 10.12 6.69-.53.42-.92 1.01-1.06 1.71z" fill="#69d6f4"/><path d="m26 4v14c0 1.1-.9 2-2 2h-4v2c0 .56-.23 1.08-.6 1.44-.36.37-.88.6-1.44.6-.61 0-1.18-.27-1.57-.73l-4.39-3.31h-8c-1.1 0-2-.9-2-2v-14c0-1.1.9-2 2-2h20c1.1 0 2 .9 2 2z" fill="#e6e9ed"/><path d="m19 7c.62.61 1 1.46 1 2.41 0 1.01-.45 1.96-1.23 2.61l-4.77 3.98-4.77-3.98c-.78-.65-1.23-1.6-1.23-2.61 0-1.89 1.52-3.41 3.41-3.41h.18c.9 0 1.77.36 2.41 1 .64-.64 1.51-1 2.41-1h.18c.95 0 1.8.38 2.41 1z" fill="#ff826e"/><path d="m54.81 49.95c.58 1.55-.21 3.28-1.75 3.86-.44.16-.87.22-1.32.18-1.19-.1-2.19-.97-2.61-2.09l-5.24-13.99c-.1.02-.2.04-.31.05-.66.08-1.35.04-2.07-.19-2.06-.65-3.41-2.63-3.5-4.77h9.99l.12-.11c.3.3.54.66.69 1.06z" fill="#cf9e76"/><path d="m38.01 33c.09 2.14 1.44 4.12 3.5 4.77.72.23 1.41.27 2.07.19l-.55 6.38c-.18 2.07-1.91 3.66-3.98 3.66h-7.08-2.97c-.36 0-.71-.07-1.03-.18-1.32-.49-2.21-1.88-1.91-3.42.14-.7.53-1.29 1.06-1.71.55-.44 1.26-.69 2-.69h2.03 5.21c.52 0 .96-.4 1-.92l.64-8.28c0 .07 0 .13.01.2z" fill="#cf9e76"/><path d="m59 22h-5.78c-.35 0-.67-.18-.85-.47l-.64-.75c-2.58-3.03-6.36-4.78-10.35-4.78-1.8 0-3.56.36-5.19 1.03-1.63.68-3.13 1.67-4.41 2.95l-1.73 1.73c-1.31 1.31-2.05 3.09-2.05 4.95v1.34 2.88c0 1.45.98 2.79 2.4 3.06 1.92.37 3.6-1.09 3.6-2.94v-3-1.59c0-.26.11-.52.29-.7l2.71-2.71h1v9.75.05c0 .07 0 .13.01.2h9.99l.12-.11c-.04-.04-.08-.08-.12-.12v-7.12c1.32 1.48 3.19 2.35 5.22 2.35h5.66c1.45 0 2.79-.98 3.06-2.4.37-1.92-1.09-3.6-2.94-3.6z" fill="#b4dd7f"/><circle cx="43" cy="9" fill="#f0d0b4" r="7"/><path d="m62.087 22.458c-.765-.927-1.89-1.458-3.087-1.458h-5.783l-.724-.867c-1.563-1.836-3.537-3.212-5.721-4.081 2.514-1.351 4.228-4.004 4.228-7.052 0-4.411-3.589-8-8-8s-8 3.589-8 8c0 2.598 1.25 4.903 3.174 6.366-2.669.597-5.122 1.926-7.102 3.906l-1.728 1.728c-1.512 1.512-2.344 3.521-2.344 5.659v.341h-23c-1.654 0-3 1.346-3 3s1.346 3 3 3h5.271c-4.926 2.731-8.271 7.98-8.271 14 0 8.822 7.178 16 16 16 8.084 0 14.865-6.08 15.857-14h6.188c2.614 0 4.756-1.964 4.98-4.57l.232-2.682 3.94 10.507c.573 1.528 1.93 2.6 3.456 2.73.117.01.231.015.345.015.477 0 .949-.085 1.41-.256 2.061-.775 3.109-3.085 2.338-5.149l-6.002-16.002c-.168-.447-.422-.866-.744-1.23v-4.572c1.254.782 2.713 1.209 4.217 1.209h5.665c1.98 0 3.68-1.351 4.041-3.211.231-1.191-.073-2.406-.836-3.331zm-25.087-13.458c0-3.309 2.691-6 6-6s6 2.691 6 6-2.691 6-6 6-6-2.691-6-6zm-33 22c-.552 0-1-.449-1-1s.448-1 1-1h23v1.881c0 1.98 1.351 3.681 3.212 4.042 1.189.23 2.405-.074 3.33-.836.927-.764 1.458-1.889 1.458-3.087v-4.586l2-2v8.337c0 .016.004.032.004.048l-.644 8.201h-4.537c-2.432-6.006-8.294-10-14.823-10zm25-2h4v2c0 .599-.267 1.161-.73 1.544-.471.387-1.066.533-1.677.417-.908-.177-1.593-1.071-1.593-2.08zm-12 32c-7.72 0-14-6.28-14-14s6.28-14 14-14c5.437 0 10.346 3.164 12.644 8h-.526c-.551 0-1.075.113-1.559.304-2.081-3.861-6.112-6.304-10.559-6.304-6.617 0-12 5.383-12 12s5.383 12 12 12c5.883 0 10.881-4.32 11.834-10.018.056.002.11.018.166.018h1.846c-.977 6.808-6.857 12-13.846 12zm8.913-13.458c.28.34.62.605.983.832-.675 4.884-4.899 8.626-9.896 8.626-5.514 0-10-4.486-10-10s4.486-10 10-10c3.794 0 7.206 2.147 8.902 5.498-.404.488-.699 1.067-.825 1.713-.231 1.191.073 2.406.836 3.331zm16.121-3.284c-.136 1.563-1.42 2.742-2.988 2.742h-10.046c-.599 0-1.161-.266-1.543-.73-.388-.47-.535-1.065-.417-1.677.177-.908 1.069-1.593 2.078-1.593h7.242c1.037 0 1.912-.81 1.994-1.844l.32-4.085c.686.753 1.545 1.338 2.529 1.652.42.134.852.2 1.288.236zm11.839 6.038c.386 1.033-.139 2.188-1.164 2.574-.293.108-.583.15-.885.122-.762-.065-1.449-.63-1.753-1.439l-5.539-14.771-.82.147c-.666.119-1.287.083-1.9-.112-1.273-.406-2.244-1.491-2.628-2.818h8.533c.057.096.116.192.155.296zm7.087-24.888c-.177.907-1.069 1.592-2.078 1.592h-5.665c-1.583 0-3.1-.632-4.217-1.745v-3.255h-2v10h-8v-10h-2.414l-3 3c-.378.378-.586.88-.586 1.414v.586h-4v-.341c0-1.603.624-3.11 1.758-4.244l1.729-1.729c2.376-2.377 5.536-3.686 8.898-3.686 3.696 0 7.189 1.614 9.585 4.429l.599.703c.372.545.983.868 1.648.868h5.783c.599 0 1.161.266 1.543.73.388.47.535 1.066.417 1.678z"/><path d="m14 17.302 5.415-4.513c1.007-.839 1.585-2.073 1.585-3.384 0-2.429-1.977-4.405-4.405-4.405h-.185c-.883 0-1.727.258-2.415.713-.71-.464-1.538-.713-2.405-.713h-.185c-2.428 0-4.405 1.976-4.405 4.405 0 1.311.578 2.544 1.585 3.384zm-2.595-10.302h.185c.633 0 1.252.257 1.767.766l.708.585.646-.646c.447-.448 1.066-.705 1.699-.705h.185c1.326 0 2.405 1.079 2.405 2.405 0 .716-.315 1.389-.866 1.848l-4.134 3.445-4.134-3.445c-.551-.459-.866-1.132-.866-1.848 0-1.326 1.079-2.405 2.405-2.405z"/><path d="m4 21h7.665l4.037 3.044c.576.636 1.391.999 2.255.999 1.678 0 3.043-1.365 3.043-3.043v-1h3c1.654 0 3-1.346 3-3v-14c0-1.654-1.346-3-3-3h-20c-1.654 0-3 1.346-3 3v14c0 1.654 1.346 3 3 3zm-1-17c0-.551.448-1 1-1h20c.552 0 1 .449 1 1v14c0 .551-.448 1-1 1h-5v3c0 .575-.468 1.043-1.043 1.043-.311 0-.603-.137-.801-.375l-4.821-3.668h-8.335c-.552 0-1-.449-1-1z"/><path d="m18.03 48.232-2.735-7.293-3.795 5.061h-2.5v2h3.5l2.205-2.939 3.265 8.707 2.707-6.768h3.323v-2h-4.677z"/></svg>