<svg height="915.301pt" viewBox="0 0 915.301 915.301" width="915.301pt" xmlns="http://www.w3.org/2000/svg"><path d="m869.25 167.75h-122v122c0 16.84375-13.65625 30.5-30.5 30.5h-305c-16.84375 0-30.5-13.65625-30.5-30.5v-122h-122c-16.84375 0-30.5 13.65625-30.5 30.5v442.25c0 16.84375 13.65625 30.5 30.5 30.5h610c16.84375 0 30.5-13.65625 30.5-30.5v-442.25c0-16.84375-13.65625-30.5-30.5-30.5zm-198.25 228.75" fill="#ffeb99"/><path d="m411.75 320.25h305c16.84375 0 30.5-13.65625 30.5-30.5v-244c0-16.84375-13.65625-30.5-30.5-30.5h-305c-16.84375 0-30.5 13.65625-30.5 30.5v244c0 16.84375 13.65625 30.5 30.5 30.5zm0 0" fill="#fff5cc"/><path d="m372.101562 865.253906c-2.207031 16.699219 9.539063 32.027344 26.238282 34.234375 1.335937.175781 2.683594.261719 4.03125.261719h271.082031c15.296875-.007812 28.222656-11.339844 30.226563-26.503906l26.792968-202.246094h-332.660156zm0 0" fill="#fff5cc"/><path d="m45.75 671h91.5c16.84375 0 30.5-13.65625 30.5-30.5v-122h-30.5v-198.25h30.5v-122c0-16.84375-13.65625-30.5-30.5-30.5h-91.5c-16.84375 0-30.5 13.65625-30.5 30.5v122h30.5v198.25h-30.5v122c0 16.84375 13.65625 30.5 30.5 30.5zm0 0" fill="#ffeb99"/><g fill="#231f20"><path d="m869.25 152.5h-106.75v-106.75c0-25.265625-20.484375-45.75-45.75-45.75h-305c-25.265625 0-45.75 20.484375-45.75 45.75v106.75h-106.75c-25.265625 0-45.75 20.484375-45.75 45.75v442.25c0 25.265625 20.484375 45.75 45.75 45.75h121.175781l-23.40625 177.007812c-3.3125 25.046876 14.3125 48.039063 39.359375 51.347657 1.988282.261719 3.988282.394531 5.992188.394531h271.082031c22.929687-.0625 42.292969-17.035156 45.355469-39.757812l24.980468-188.992188h125.460938c25.265625 0 45.75-20.484375 45.75-45.75v-442.25c0-25.265625-20.484375-45.75-45.75-45.75zm-472.75-106.75c0-8.421875 6.828125-15.25 15.25-15.25h305c8.421875 0 15.25 6.828125 15.25 15.25v244c0 8.421875-6.828125 15.25-15.25 15.25h-305c-8.421875 0-15.25-6.828125-15.25-15.25zm292.066406 825.496094c-1 7.582031-7.464844 13.25-15.113281 13.253906h-271.082031c-8.421875-.003906-15.246094-6.832031-15.242188-15.257812 0-.664063.042969-1.328126.128906-1.992188l23.925782-181h301.828125zm195.933594-230.746094c0 8.421875-6.828125 15.25-15.25 15.25h-610c-8.421875 0-15.25-6.828125-15.25-15.25v-442.25c0-8.421875 6.828125-15.25 15.25-15.25h106.75v106.75c0 25.265625 20.484375 45.75 45.75 45.75h305c25.265625 0 45.75-20.484375 45.75-45.75v-106.75h106.75c8.421875 0 15.25 6.828125 15.25 15.25zm0 0"/><path d="m137.25 152.5h-91.5c-25.265625 0-45.75 20.484375-45.75 45.75v122c0 8.421875 6.828125 15.25 15.25 15.25h15.25v167.75h-15.25c-8.421875 0-15.25 6.828125-15.25 15.25v122c0 25.265625 20.484375 45.75 45.75 45.75h91.5c25.265625 0 45.75-20.484375 45.75-45.75v-122c0-8.421875-6.828125-15.25-15.25-15.25h-15.25v-167.75h15.25c8.421875 0 15.25-6.828125 15.25-15.25v-122c0-25.265625-20.484375-45.75-45.75-45.75zm15.25 152.5h-15.25c-8.421875 0-15.25 6.828125-15.25 15.25v198.25c0 8.421875 6.828125 15.25 15.25 15.25h15.25v106.75c0 8.421875-6.828125 15.25-15.25 15.25h-91.5c-8.421875 0-15.25-6.828125-15.25-15.25v-106.75h15.25c8.421875 0 15.25-6.828125 15.25-15.25v-198.25c0-8.421875-6.828125-15.25-15.25-15.25h-15.25v-106.75c0-8.421875 6.828125-15.25 15.25-15.25h91.5c8.421875 0 15.25 6.828125 15.25 15.25zm0 0"/><path d="m396.5 381.25h61v30.5h-61zm0 0"/><path d="m488 381.25h61v30.5h-61zm0 0"/><path d="m579.5 381.25h61v30.5h-61zm0 0"/><path d="m671 381.25h61v30.5h-61zm0 0"/><path d="m396.5 488h61v30.5h-61zm0 0"/><path d="m488 488h61v30.5h-61zm0 0"/><path d="m579.5 488h61v30.5h-61zm0 0"/><path d="m671 488h61v30.5h-61zm0 0"/><path d="m396.5 579.5h61v30.5h-61zm0 0"/><path d="m488 579.5h61v30.5h-61zm0 0"/><path d="m579.5 579.5h61v30.5h-61zm0 0"/><path d="m671 579.5h61v30.5h-61zm0 0"/></g></svg>