<svg id="Fill_out_line" height="512" viewBox="0 0 512 512" width="512" xmlns="http://www.w3.org/2000/svg" data-name="Fill out line"><rect fill="#3086cd" height="200" rx="64" width="208" x="280" y="112"/><path d="m344 80h80v32h-80z" fill="#2a70ab"/><path d="m344 80-8-56 32 24 16-24 16 24 32-24-8 56z" fill="#3086cd"/><rect fill="#fb685b" height="32" rx="2" width="464" x="24" y="344"/><path d="m24 24h208v288h-208z" fill="#4db7e5"/><path d="m152 56h48v32h-48z" fill="#2d7dbf"/><path d="m228.364 376h90.909l-18.909-32h-54.546z" fill="#f35244"/><path d="m160 472h200l-104-176z" fill="#db4132"/><path d="m320 280h64v32h-64z" fill="#f18d00"/><path d="m320 248h64v32h-64z" fill="#fdb62f"/><path d="m384 216h64v32h-64z" fill="#fdb62f"/><path d="m384 248h64v32h-64z" fill="#f18d00"/><path d="m384 280h64v32h-64z" fill="#fdb62f"/><path d="m360 280h24v32h-24z" fill="#f08000"/><path d="m360 248h24v32h-24z" fill="#fca713"/><path d="m424 248h24v32h-24z" fill="#f08000"/><path d="m424 216h24v32h-24z" fill="#fca713"/><path d="m424 280h24v32h-24z" fill="#fca713"/><path d="m24 216h144v96h-144z" fill="#95cb37"/><path d="m472 336h-183.071l-26.0413-44.06982a8.00039 8.00039 0 0 0 -13.91114.23877l-23.90771 43.83105h-185.06885a24 24 0 0 0 0 48h158.887l-45.9104 84.169a8.00073 8.00073 0 0 0 7.0234 11.831h200a8.00036 8.00036 0 0 0 6.8877-12.06982l-49.59522-83.93018h154.70752a24 24 0 0 0 0-48zm-432 32a8 8 0 0 1 0-16h176.34131l-8.727 16zm133.47656 96 82.80176-151.80371 89.70215 151.80371zm298.52344-96h-164.16187l-9.45459-16h173.61646a8 8 0 0 1 0 16z"/><path d="m432 104.45508v-23.88428l7.91992-55.43945a8 8 0 0 0 -12.71972-7.53125l-25.23438 18.92578-11.30957-16.96338a7.99959 7.99959 0 0 0 -13.3125 0l-11.30957 16.96338-25.23438-18.92578a8 8 0 0 0 -12.71972 7.53125l7.91992 55.43945v23.88428a72.095 72.095 0 0 0 -64 71.54492v72a72.075 72.075 0 0 0 9 34.88184l13.99219-7.76172a56.0304 56.0304 0 0 1 -6.99219-27.12012v-72a56.06322 56.06322 0 0 1 56-56h80a56.06322 56.06322 0 0 1 56 56v72a56.03548 56.03548 0 0 1 -6.99219 27.12109l13.99219 7.76075a72.07783 72.07783 0 0 0 9-34.88184v-72a72.095 72.095 0 0 0 -64-71.54492zm-68.7998-50.05518a7.99921 7.99921 0 0 0 11.45605-1.9624l9.34375-14.01514 9.34375 14.01514a7.99921 7.99921 0 0 0 11.45605 1.9624l16.54883-12.41162-4.28711 30.01172h-66.123l-4.28711-30.01172zm-11.2002 49.6001v-16h64v16z"/><path d="m448 320a8.00008 8.00008 0 0 0 8-8v-96a8.00008 8.00008 0 0 0 -8-8h-64a8.00008 8.00008 0 0 0 -8 8v24h-56a8.00008 8.00008 0 0 0 -8 8v64a8.00008 8.00008 0 0 0 8 8zm-120-32h48v16h-48zm112-32v16h-48v-16zm0 48h-48v-16h48zm-48-80h48v16h-48zm-64 32h48v16h-48z"/><path d="m24 320h144a8.00008 8.00008 0 0 0 8-8v-96a8.00008 8.00008 0 0 0 -8-8h-144a8.00008 8.00008 0 0 0 -8 8v96a8.00008 8.00008 0 0 0 8 8zm8-16v-48h128v48zm128-80v16h-128v-16z"/><path d="m64 272h32v16h-32z"/><path d="m112 272h32v16h-32z"/><path d="m32 32h192v248h16v-256a8.00008 8.00008 0 0 0 -8-8h-208a8.00008 8.00008 0 0 0 -8 8v168h16z"/><path d="m208 56a8.00008 8.00008 0 0 0 -8-8h-48a8.00008 8.00008 0 0 0 -8 8v32a8.00008 8.00008 0 0 0 8 8h48a8.00008 8.00008 0 0 0 8-8zm-16 24h-32v-16h32z"/><path d="m64 112h32v16h-32z"/><path d="m112 112h96v16h-96z"/><path d="m48 144h72v16h-72z"/><path d="m136 144h72v16h-72z"/><path d="m80 176h32v16h-32z"/><path d="m128 176h32v16h-32z"/><path d="m176 176h32v16h-32z"/><path d="m232 400a24 24 0 1 0 24-24 24.02718 24.02718 0 0 0 -24 24zm32 0a8 8 0 1 1 -8-8 8.00917 8.00917 0 0 1 8 8z"/></svg>