<?xml version="1.0"?>
<svg xmlns="http://www.w3.org/2000/svg" xmlns:xlink="http://www.w3.org/1999/xlink" version="1.1" id="Capa_1" x="0px" y="0px" viewBox="0 0 512 512" style="enable-background:new 0 0 512 512;" xml:space="preserve" width="512px" height="512px"><g><g>
	<g>
		<g>
			<path d="M263.173,157.81c-9.338-11.39-18.5-21.138-26.902-29.309c21.366-4.665,44.265-13.868,62.078-31.497     C318.687,76.875,329,49.621,329,16h-40c0,22.864-6.146,40.061-18.789,52.573c-13.518,13.379-32.731,19.613-50.185,22.378     L249,38.526V0H96v38.22l38.472,68.685c-14.5,11.407-37.455,31.875-60.338,62.167c-21.54,28.513-38.701,59.999-51.009,93.585     C7.78,304.53,0,349.736,0,397.02c0,43.307,10.204,73.336,31.194,91.802c21.515,18.928,50.199,22.333,75.421,23.167l0.33,0.011     H240.05c-8.753-11.634-15.03-25.229-18.04-40H107.613c-25.508-0.872-40.472-4.828-49.998-13.209     C45.762,448.363,40,428.157,40,397.02c0-76.594,21.874-144.711,65.015-202.459c25.47-34.094,51.294-54.374,61.345-61.596h13.46     c9.305,6.685,32.012,24.482,55.477,53.988C242.528,175.458,252.031,165.533,263.173,157.81z M173.212,92.965h-0.701L142.845,40     h59.638L173.212,92.965z" data-original="#000000" class="active-path" data-old_color="#009de0" fill="#009de0"/>
			<rect x="402" y="330" width="40" height="40" data-original="#000000" class="active-path" data-old_color="#009de0" fill="#009de0"/>
			<path d="M187,431v-29.226c6.475-2.718,12.44-6.765,17.566-12.015c9.953-10.191,15.434-23.55,15.434-37.613     c0-29.869-25.134-43.08-43.485-52.726l-0.209-0.11C160.524,291.015,158,287.702,158,281.324c0-3.868,4.374-7.525,9-7.525     c4.248,0,9,2.989,9,6.99v4.074h40v-4.074c0-19.08-11.927-35.528-29-42.881v-28.982h-40v29.093     c-5.026,2.219-9.703,5.277-13.831,9.107C123.388,256.204,118,268.348,118,281.324c0,32.529,25.822,46.101,39.694,53.394     l0.21,0.11C171.251,341.843,180,346.839,180,352.146c0,7.273-6.075,13.653-13,13.653s-13-6.218-13-13.306V346h-40v6.493     c0,22.278,13.663,41.397,33,49.353V431H187z" data-original="#000000" class="active-path" data-old_color="#009de0" fill="#009de0"/>
			<rect x="331" y="401" width="40" height="40" data-original="#000000" class="active-path" data-old_color="#009de0" fill="#009de0"/>
			<path d="M452,180.045H320c-33.084,0-60,26.916-60,60V452c0,33.084,26.916,60,60,60h132c33.084,0,60-26.916,60-60V240.045     C512,206.961,485.084,180.045,452,180.045z M472,452c0,11.028-8.972,20-20,20H320c-11.028,0-20-8.972-20-20V300h172V452z      M472,260H300v-19.955c0-11.028,8.972-20,20-20h132c11.028,0,20,8.972,20,20V260z" data-original="#000000" class="active-path" data-old_color="#009de0" fill="#009de0"/>
			<rect x="331" y="330" width="40" height="40" data-original="#000000" class="active-path" data-old_color="#009de0" fill="#009de0"/>
			<rect x="402" y="401" width="40" height="40" data-original="#000000" class="active-path" data-old_color="#009de0" fill="#009de0"/>
		</g>
	</g>
</g></g> </svg>
