<?xml version="1.0"?>
<svg xmlns="http://www.w3.org/2000/svg" height="512px" viewBox="0 0 512 512" width="512px"><g><path d="m512 380.074219-8.453125-11.894531c-23.671875-33.316407-69.097656-41.171876-102.414063-19.230469l-46.75 30.574219c4.796876-9.875 7.488282-20.953126 7.488282-32.648438v-14.992188h-93.648438c-8.277344 0-11.652344-5.980468-16.945312-9.9375-39.53125-34.785156-99.152344-34.785156-138.683594 0l-45.367188 39.925782h-67.226562v149.945312h336.894531zm-482.011719 101.753906v-89.96875h48.550781l53.867188-47.398437c28.234375-24.847657 70.820312-24.847657 99.058594 0 4.035156 2.71875 14.929687 17.398437 36.757812 17.398437h61.089844c-6.191406 17.457031-22.867188 30-42.417969 30h-60.976562v29.988281h118.535156l73.132813-47.828125c16.121093-10.617187 36.40625-9.660156 51.171874 1.058594l-141.886718 106.75zm0 0" data-original="#000000" class="active-path" data-old_color="#009de0" fill="#009de0"/><path d="m241.914062 90.96875h29.988282v29.988281h-29.988282zm0 0" data-original="#000000" class="active-path" data-old_color="#009de0" fill="#009de0"/><path d="m331.882812 180.933594h29.988282v29.992187h-29.988282zm0 0" data-original="#000000" class="active-path" data-old_color="#009de0" fill="#009de0"/><path d="m357.480469 116.5625-89.964844 89.96875-21.207031-21.207031 89.96875-89.964844zm0 0" data-original="#000000" class="active-path" data-old_color="#009de0" fill="#009de0"/><path d="m151.945312 150.945312c0 82.703126 67.113282 150.945313 149.945313 150.945313 82.714844 0 149.949219-68.109375 149.949219-150.945313 0-82.699218-67.113282-150.945312-149.949219-150.945312-82.710937 0-149.945313 68.113281-149.945313 150.945312zm269.902344 0c0 66.695313-53.8125 120.957032-119.957031 120.957032s-119.957031-54.261719-119.957031-120.957032c0-66.695312 53.8125-120.957031 119.957031-120.957031s119.957031 54.261719 119.957031 120.957031zm0 0" data-original="#000000" class="active-path" data-old_color="#009de0" fill="#009de0"/></g> </svg>
