<svg id="filled_outline" enable-background="new 0 0 512 512" height="512" viewBox="0 0 512 512" width="512" xmlns="http://www.w3.org/2000/svg"><path d="m464 8c-22.0800781 0-40 17.9199219-40 40v220.7998047c-14.0800781-8.1601563-30.4799805-12.7998047-48-12.7998047h-80c-21.2797852 0-40.8798828 6.8798828-56.7998047 18.5600586-2-4.2402344-4.800293-8.2402344-8.2402344-11.6801758-.2397461-.2402344-.4799805-.3999023-.7197266-.6401367-16.5600586-16.7998047-43.6801758-16.7998047-60.3203125-.159668l-.7998047.7998047c-10.6401367 10.6401367-15.0400391 26-11.6801758 40.7202148l14.1601563 61.199707c2.7197266 11.7602539-1.4399414 24.0800781-10.7202148 31.8398438l-32.8798828 27.3603516h-40v-376c0-22.0800781 17.9199219-40 40-40z" fill="#931d5b"/><path d="m504 48v40h-80v-40c0-22.0800781 17.9199219-40 40-40 2.7202148 0 5.4399414.2397461 8 .7998047 7.8398438 1.6000977 14.8798828 5.4399414 20.3198242 10.8798828 7.2001953 7.2802734 11.6801758 17.2802734 11.6801758 28.3203125z" fill="#acdd12"/><path d="m120 424c-8.7998047 0-16 7.199707-16 16v16c-8.7998047 0-16 7.199707-16 16v32h-40c-2.7202148 0-5.4399414-.2402344-8-.800293-7.8398438-1.5996094-14.8798828-5.4399414-20.3198242-10.8798828-7.2001953-7.2797851-11.6801758-17.2797851-11.6801758-28.3198242v-40z" fill="#acdd12"/><path d="m312 472v32h-224v-32c0-8.800293 7.2001953-16 16-16h192c8.7998047 0 16 7.199707 16 16z" fill="#ffec00"/><path d="m312 472v32h-224v-16h176c17.6699219 0 32-14.3300781 32-32 8.8000488 0 16 7.1999512 16 16z" fill="#fcc200"/><path d="m171.6000977 364.7998047-14.1601563-61.199707c-3.3598633-14.7202148 1.0400391-30.0800781 11.6801758-40.7202148l.7998047-.7998047c16.6401367-16.6401367 43.7602539-16.6401367 60.3203125.159668.2397461.2402344.4799805.3999023.7197266.6401367 3.4399414 3.4399414 6.2402344 7.4399414 8.2402344 11.6801758 4.3999023 8.8798828 5.5996094 19.1196289 3.3598633 29.0400391l-14.1601563 61.199707c-2.7197266 11.7602539 1.4399414 24.0800781 10.7202148 31.8398438l32.8798828 27.3603514h-144l32.8798828-27.3603516c9.2802735-7.7597656 13.4399414-20.0795898 10.7202149-31.8398437z" fill="#e22526"/><path d="m192 296c-9.8200684 14.7199707-22.6401367 20.4199219-31.0900879 22.6099854l-3.4699707-15.0100098c-3.3598633-14.7199707 1.0400391-30.0799561 11.6801758-40.7199707l.7998047-.8000488c8.4101563-8.4100342 19.4899902-12.5699463 30.5300293-12.4599609 1.4401855 5.7700194 5.0900879 26.079956-8.4499512 46.3800048z" fill="#f0615f"/><path d="m200.4499969 249.6199951c1.4400025 5.7700043 5.0899964 26.0800171-8.4499969 46.3800049-9.8200073 14.7200012-22.6399994 20.4200134-31.0899963 22.6099854" fill="none"/><path d="m272 424h-48s-16-24-16-48 8-40 16-72c6.6201172-26.4799805 2.2800293-42.0100098.6000977-46.5700684 1.9799805 1.4100342 3.869873 3.0200195 5.6398926 4.8100586.2399902.2399902.4799805.4000244.7199707.6400146 3.4399414 3.4400635 6.2399902 7.4400635 8.2399902 11.6800537 4.4001465 8.8798828 5.6000977 19.119873 3.3601074 29.039917l-14.1601563 61.2000732c-2.7199707 11.7600098 1.4401855 24.0799561 10.7202148 31.8399658z" fill="#be202e"/><path d="m296 440v16h-192v-16c0-8.800293 7.2001953-16 16-16h160c8.7998047 0 16 7.199707 16 16z" fill="#ffec00"/><path d="m296 440v16h-192v-8h144c13.25 0 24-10.75 24-24h8c8.8000488 0 16 7.1999512 16 16z" fill="#fcc200"/><path d="m272 424c0 13.25-10.75 24-24 24h-144v-8c0-8.8000488 7.1999512-16 16-16z" fill="none"/><path d="m312 504v-32c0-8.8000488-7.1999512-16-16-16v-16c0-8.8000488-7.1999512-16-16-16h-8l-32.8798828-27.3599854c-9.2800293-7.7600098-13.4401855-20.0799561-10.7202148-31.8399658l14.1601563-61.2000732c2.2399902-9.9200439 1.0400391-20.1600342-3.3601074-29.039917 15.9201659-11.6800537 35.5200194-18.5600586 56.8000487-18.5600586h80c17.5200195 0 33.9199219 4.6400146 48 12.8000488 28.6401367 16.5599366 48 47.5998535 48 83.1999512v120l32 32z" fill="#fbe2bc"/><path d="m272 192 40 64h48l40-64-.0000305-.0000305c-8.8365479-8.8365479-23.1633911-8.8365479-31.999939 0l-.0000305.0000305-.0000305-.0000305c-8.8365479-8.8365326-23.1633911-8.8365479-31.999939-.0000153l-.0000305.0000458-.000061-.0000458c-8.8365479-8.8365326-23.1633911-8.8365173-31.999939.0000305v.0000153l-.0000305-.0000153c-8.8365479-8.8365479-23.1633911-8.8365479-31.999939 0z" fill="#fbe2bc"/><path d="m232 104v32h-96v-32l48-48 30.2402344 30.2397461z" fill="#efeeef"/><path d="m168 136h32v-16.0000153c0-8.8365478-7.1634369-15.9999847-15.9999847-15.9999847h-.0000305c-8.8365479 0-15.9999848 7.1634369-15.9999848 15.9999847z" fill="#00a8e7"/><path d="m136 104v-48h24v24z" fill="#e22526"/><path d="m392 143.9433594h-112c-4.3867188 0-7.9433594-3.5561523-7.9433594-7.9433594s3.5566406-7.9433594 7.9433594-7.9433594h112c4.3867188 0 7.9433594 3.5561523 7.9433594 7.9433594s-3.5566406 7.9433594-7.9433594 7.9433594z" fill="#ddf216"/><path d="m392 111.9433594h-112c-4.3867188 0-7.9433594-3.5561523-7.9433594-7.9433594s3.5566407-7.9433594 7.9433594-7.9433594h112c4.3867188 0 7.9433594 3.5561523 7.9433594 7.9433594s-3.5566406 7.9433594-7.9433594 7.9433594z" fill="#ddf216"/><path d="m392 79.9433594h-112c-4.3867188 0-7.9433594-3.5561523-7.9433594-7.9433594s3.5566407-7.9433594 7.9433594-7.9433594h112c4.3867188 0 7.9433594 3.5561523 7.9433594 7.9433594s-3.5566406 7.9433594-7.9433594 7.9433594z" fill="#ddf216"/><path d="m336 360h16c4.4179688 0 8-3.581543 8-8s-3.5820313-8-8-8h-8c0-4.418457-3.5820313-8-8-8s-8 3.581543-8 8v1.3762207c-9.3110352 3.3024902-16 12.1948242-16 22.6237793 0 13.2333984 10.7666016 24 24 24 4.4111328 0 8 3.5888672 8 8s-3.5888672 8-8 8h-16c-4.4179688 0-8 3.581543-8 8s3.5820313 8 8 8h8c0 4.418457 3.5820313 8 8 8s8-3.581543 8-8v-1.3762207c9.3110352-3.3024902 16-12.1948242 16-22.6237793 0-13.2333984-10.7666016-24-24-24-4.4111328 0-8-3.5888672-8-8s3.5888672-8 8-8z" fill="#387f29"/><circle cx="288" cy="384" fill="#387f29" r="8"/><circle cx="384" cy="384" fill="#387f29" r="8"/><path d="m136 168h96v48h-96z" fill="#f98dd4"/><path d="m232 112c-2.0478516 0-4.0947266-.78125-5.6572266-2.3432617l-42.3427734-42.3432617-42.3427734 42.3432617c-3.125 3.1240234-8.1894531 3.1240234-11.3144531 0-3.1240234-3.1240234-3.1240234-8.1894531 0-11.3134766l48-48c3.125-3.1240234 8.1894531-3.1240234 11.3144531 0l48 48c3.1240234 3.1240234 3.1240234 8.1894531 0 11.3134766-1.5625 1.5620117-3.609375 2.3432617-5.6572266 2.3432617z" fill="#e22526"/><g fill="#efeeef"><circle cx="176" cy="272" r="8"/><circle cx="104" cy="472" r="8"/><path d="m183.9980469 352.0019531c-3.3818359 0-6.5234375-2.1611328-7.6142578-5.5537109-4.6376953-14.4257813-7.8564453-29.3779297-9.5673828-44.4399414-.4980469-4.3901367 2.65625-8.3530273 7.0458984-8.8515625 4.4072266-.4990234 8.3544922 2.6567383 8.8525391 7.0458984 1.5917969 14.0146484 4.5869141 27.9267578 8.9013672 41.3491211 1.3525391 4.2060547-.9619141 8.7124023-5.1679688 10.0644531-.8134766.2617188-1.6386719.3857422-2.4501953.3857422z"/><path d="m176.0000153 464h-40.0000305c-4.418274 0-7.9999848 3.5817261-7.9999848 8 0 4.4182739 3.5817108 8 7.9999847 8h40.0000305c4.418274 0 7.9999848-3.5817261 7.9999848-8 0-4.4182739-3.5817108-8-7.9999847-8z"/></g><path d="m312 504v-32c0-2.9599609-.8200684-5.75-2.2299805-8.1300049 68.0100098-3.0100097 122.2299805-59.1099853 122.2299805-127.8699951v-62.0200195c24.1899414 17.4000244 40 45.8499756 40 78.0200195v120l32 32z" fill="#f9ce95"/><path d="m479.9399414 479.9399414h-31.9399414c-4.3901367 0-7.9399414-3.5499268-7.9399414-7.9399414s3.5498047-7.9399414 7.9399414-7.9399414h24v7.9399414z" fill="#c99d66"/><path d="m400 192s-24 32-48 40-40 24-40 24h48z" fill="#f9ce95"/><path d="m389.6171875 298.3833008-34.4399414-34.4399414h4.8227539c4.3867188 0 7.9433594-3.5561523 7.9433594-7.9433594s-3.5566406-7.9433594-7.9433594-7.9433594h-23.994873c-.003418 0-.0068359 0-.0102539 0h-23.9948731c-4.3867188 0-7.9433594 3.5561523-7.9433594 7.9433594s3.5566406 7.9433594 7.9433594 7.9433594h4.8227539l-34.4399414 34.4399414c-3.1015625 3.1020508-3.1015625 8.1313477 0 11.2333984 3.1035156 3.1025391 8.1308594 3.1025391 11.234375 0l42.3828125-42.3833008 42.3828125 42.3833008c1.5517578 1.5512695 3.5839844 2.3266602 5.6171875 2.3266602s4.0654297-.7753906 5.6171875-2.3266602c3.1015625-3.1020508 3.1015625-8.1313476 0-11.2333984z" fill="#683b11"/><path d="m232 168-96 48h96z" fill="#b71e71"/><path d="m504 96c4.4179688 0 8-3.581543 8-8v-40c0-26.4672852-21.5322266-48-48-48h-336c-26.4677734 0-48 21.5327148-48 48v368h-72c-4.4179688 0-8 3.581543-8 8v40c0 12.7675781 4.96875 24.8232422 14.0234375 33.9770508 6.6347656 6.6342773 15.0439453 11.1459961 24.3232422 13.0498047 2.9716797.6459961 6.2197266.9731445 9.6533203.9731445h40 224 192c3.2353516 0 6.1523438-1.9492188 7.390625-4.9384766s.5537109-6.4301758-1.7333984-8.7182617l-29.6572266-29.6572265v-116.6860352c0-35.4824219-18.2849121-68.6496582-48-87.6779785v-168.3220215zm-40-80c17.6445313 0 32 14.3549805 32 32v32h-64v-32c0-17.6450195 14.3554688-32 32-32zm-368 32c0-17.6450195 14.3554688-32 32-32h300.2519531c-7.6152343 8.4980469-12.2519531 19.7177734-12.2519531 32v207.94104c-12.5678711-5.218872-26.1772461-7.94104-40-7.94104h-1.5656738l32.3498535-51.7597656c1.9746094-3.1591797 1.5068359-7.2631836-1.1279297-9.8974609-10.2001953-10.1992188-25.8632813-11.6870117-37.65625-4.4624023-9.7792969-5.9902344-22.2207031-5.9902344-32 0-9.7792969-5.9902344-22.2207031-5.9902344-32 0-11.7939453-7.2246094-27.4570313-5.7368164-37.65625 4.4624023-2.6347656 2.6342773-3.1025391 6.7382813-1.1279297 9.8974609l32.3498535 51.7597656h-1.5656738c-19.3769531 0-37.9624023 5.2468262-54.2590332 15.2340088-1.5393066-2.1204834-3.244873-4.1317139-5.1237793-6.0108643-.2705078-.2705078-.5361328-.5063477-.84375-.765625-9.4716797-9.5219727-22.0898438-14.7890625-35.5595703-14.8374023-.0634766 0-.1240234-.0004883-.1875-.0004883-13.5175781 0-26.2138672 5.253418-35.7636719 14.8037109l-.7998047.7993164c-12.6503906 12.6503906-17.8173828 30.652832-13.8173828 48.1806641l14.1601563 61.1992188c2.0507813 8.8710938-1.0361328 18.0288086-8.0429688 23.8876953l-30.6560058 25.5097656h-5.1066895-24zm220.4343262 200-33.5622559-53.6982422c5.2050781-1.9394531 11.2949219-.8203125 15.4716797 3.3554688 3.1230469 3.1240234 8.1894531 3.1240234 11.3125 0 5.7050781-5.703125 14.9824219-5.703125 20.6875 0 3.1230469 3.1240234 8.1894531 3.1240234 11.3125 0 5.7050781-5.703125 14.9824219-5.703125 20.6875 0 3.1230469 3.1240234 8.1894531 3.1240234 11.3125 0 4.1767578-4.1757813 10.2666016-5.2949219 15.4716797-3.3554688l-33.5622559 53.6982422zm-82.4313965 154.7890625 15.8759766 13.2109375h-99.7578125l15.890625-13.2231445c11.671875-9.7597656 16.7998047-25.0024414 13.3818359-39.7802734l-14.1542969-61.1762695c-2.7626953-12.1064453.8027344-24.5488281 9.5380859-33.2836914l.7998047-.7998047c6.5263672-6.5273438 15.2050781-10.1171875 24.4511719-10.1171875.0419922 0 .0849609.0004883.1279297.0004883 9.2519531.0332031 17.9130859 3.668457 24.4160156 10.2651367.2753906.2768555.546875.5180664.8623047.7832031 2.6796875 2.7109375 4.9355469 5.9248047 6.5302734 9.3041992.0214844.046875.0439453.0927734.0673828.1386719 3.5800781 7.2265625 4.546875 15.6523438 2.7333984 23.6855469l-14.1601563 61.2001953c-3.4179686 14.7773437 1.7099611 30.0200194 13.3974611 39.7919921zm53.9970703 45.2109375h-176v-8c0-4.4111328 3.5888672-8 8-8h160c4.4111328 0 8 3.5888672 8 8zm-246.2900391 47.3847656c-.0371094-.0083008-.0732422-.0161133-.1103516-.0234375-6.2167969-1.2685547-11.8408203-4.2763672-16.2324219-8.6669922-6.040039-6.1079101-9.3671874-14.1674804-9.3671874-22.6943359v-32h81.3762207c-.8881836 2.5039063-1.3762207 5.1955566-1.3762207 8v9.3762207c-9.3110352 3.3024902-16 12.194458-16 22.6237793v24h-32c-2.3076172 0-4.4238281-.2070312-6.2900391-.6152344zm262.2900391.6152344h-208v-24c0-4.4111328 3.5888672-8 8-8h192c4.4111328 0 8 3.5888672 8 8zm160-144v112h-16c-4.4179688 0-8 3.581543-8 8s3.5820313 8 8 8h20.6860352l16.0004883 16h-164.6865235v-24c0-10.4293213-6.6889648-19.3212891-16-22.6237793v-9.3762207c0-13.2333984-10.7666016-24-24-24h-5.1066895l-30.6413574-25.4975586c-7.0224609-5.871582-10.109375-15.0292969-8.0585938-23.8994141l14.1699219-61.2407227c2.1005859-9.3024902 1.6115723-18.9562988-1.3208008-27.8208008 14.0341798-8.8708495 30.1398926-13.5415038 46.9575196-13.5415038h20.6860352l-34.3432617 34.3432617c-3.1240234 3.1240234-3.1240234 8.1894531 0 11.3134766 3.125 3.1240234 8.1894531 3.1240234 11.3144531 0l42.3427734-42.3432617 42.3427734 42.3432617c1.5625 1.5620117 3.609375 2.3432617 5.6572266 2.3432617s4.0947266-.78125 5.6572266-2.3432617c3.1240234-3.1240234 3.1240234-8.1894531 0-11.3134766l-34.3432618-34.3432617h20.6860352c15.5458984 0 30.7578125 4.0532227 43.9951172 11.7255859 27.1435547 15.694336 44.0048828 44.9213868 44.0048828 76.2744141z"/><path d="m136 144h96c4.4179688 0 8-3.581543 8-8v-32c0-2.121582-.8427734-4.1567383-2.3427734-5.6567383l-48-48c-3.1240234-3.1225586-8.1884766-3.1245117-11.3144531 0l-10.3427735 10.3427735v-4.6860352c0-4.418457-3.5820313-8-8-8h-24c-4.4179688 0-8 3.581543-8 8v48 32c0 4.418457 3.5820313 8 8 8zm56-16h-16v-8c0-4.4111328 3.5888672-8 8-8s8 3.5888672 8 8zm-8-60.6865234 40 40v20.6865234h-16v-8c0-13.2338867-10.7666016-24-24-24s-24 10.7661133-24 24v8h-16v-20.6865234zm-32-3.3134766v12.6860352l-8 8v-20.6860352z"/><path d="m280 144h112c4.4179688 0 8-3.581543 8-8s-3.5820313-8-8-8h-112c-4.4179688 0-8 3.581543-8 8s3.5820313 8 8 8z"/><path d="m280 112h112c4.4179688 0 8-3.581543 8-8s-3.5820313-8-8-8h-112c-4.4179688 0-8 3.581543-8 8s3.5820313 8 8 8z"/><path d="m280 80h112c4.4179688 0 8-3.581543 8-8s-3.5820313-8-8-8h-112c-4.4179688 0-8 3.581543-8 8s3.5820313 8 8 8z"/><path d="m336 360h16c4.4179688 0 8-3.581543 8-8s-3.5820313-8-8-8h-8c0-4.418457-3.5820313-8-8-8s-8 3.581543-8 8v1.3762207c-9.3110352 3.3024902-16 12.1948242-16 22.6237793 0 13.2333984 10.7666016 24 24 24 4.4111328 0 8 3.5888672 8 8s-3.5888672 8-8 8h-16c-4.4179688 0-8 3.581543-8 8s3.5820313 8 8 8h8c0 4.418457 3.5820313 8 8 8s8-3.581543 8-8v-1.3762207c9.3110352-3.3024902 16-12.1948242 16-22.6237793 0-13.2333984-10.7666016-24-24-24-4.4111328 0-8-3.5888672-8-8s3.5888672-8 8-8z"/><path d="m136 224h96c4.4179688 0 8-3.581543 8-8v-48c0-4.418457-3.5820313-8-8-8h-96c-4.4179688 0-8 3.581543-8 8v48c0 4.418457 3.5820313 8 8 8zm8-48h80v32h-80z"/><circle cx="392" cy="384" r="8"/><circle cx="288" cy="384" r="8"/></svg>