<svg height="496pt" viewBox="0 0 496 496" width="496pt" xmlns="http://www.w3.org/2000/svg"><path d="m382.238281 496h-60.476562l-7.5625-30.167969c-5.542969-1.832031-10.894531-4.03125-15.992188-6.574219l-26.640625 15.957032-42.773437-42.773438 15.960937-26.640625c-2.546875-5.097656-4.753906-10.449219-6.578125-15.992187l-30.175781-7.570313v-60.476562l30.167969-7.5625c1.832031-5.542969 4.03125-10.894531 6.574219-15.992188l-15.957032-26.640625 42.773438-42.773437 26.640625 15.960937c5.097656-2.546875 10.449219-4.753906 15.992187-6.578125l7.570313-30.175781h60.484375l7.5625 30.167969c5.542968 1.832031 10.894531 4.03125 15.992187 6.574219l26.640625-15.957032 42.773438 42.773438-15.957032 26.640625c2.542969 5.097656 4.75 10.449219 6.574219 15.992187l30.167969 7.570313v60.484375l-30.167969 7.5625c-1.832031 5.542968-4.03125 10.894531-6.574219 15.992187l15.957032 26.640625-42.773438 42.773438-26.640625-15.957032c-5.097656 2.542969-10.449219 4.75-15.992187 6.574219zm0 0" fill="#f0bc5e"/><path d="m174.238281 288h-60.476562l-7.5625-30.167969c-5.542969-1.832031-10.894531-4.03125-15.992188-6.574219l-26.640625 15.957032-42.773437-42.773438 15.960937-26.640625c-2.554687-5.097656-4.753906-10.449219-6.585937-15.992187l-30.167969-7.570313v-60.476562l30.167969-7.5625c1.832031-5.550781 4.03125-10.902344 6.585937-16l-15.960937-26.640625 42.773437-42.773438 26.640625 15.957032c5.089844-2.542969 10.441407-4.742188 15.984375-6.574219l7.570313-30.167969h60.484375l7.5625 30.167969c5.542968 1.832031 10.894531 4.03125 15.992187 6.585937l26.640625-15.960937 42.773438 42.773437-15.957032 26.640625c2.542969 5.097657 4.75 10.449219 6.574219 15.992188l30.167969 7.5625v60.484375l-30.167969 7.5625c-1.832031 5.542968-4.03125 10.894531-6.574219 15.992187l15.957032 26.640625-42.773438 42.773438-26.640625-15.957032c-5.097656 2.542969-10.449219 4.75-15.992187 6.574219zm0 0" fill="#f0bc5e"/><path d="m352 312c8.824219 0 16 7.175781 16 16h16c0-17.648438-14.351562-32-32-32s-32 14.351562-32 32h-16v16h16v16h-16v16h16c0 17.648438 14.351562 32 32 32s32-14.351562 32-32h-16c0 8.824219-7.175781 16-16 16s-16-7.175781-16-16h16v-16h-16v-16h16v-16h-16c0-8.824219 7.175781-16 16-16zm0 0"/><path d="m144 56c-48.519531 0-88 39.480469-88 88s39.480469 88 88 88 88-39.480469 88-88-39.480469-88-88-88zm0 160c-39.695312 0-72-32.304688-72-72s32.304688-72 72-72 72 32.304688 72 72-32.304688 72-72 72zm0 0"/><path d="m352 264c-48.519531 0-88 39.480469-88 88s39.480469 88 88 88 88-39.480469 88-88-39.480469-88-88-88zm0 160c-39.695312 0-72-32.304688-72-72s32.304688-72 72-72 72 32.304688 72 72-32.304688 72-72 72zm0 0"/><path d="m144 120c4.40625 0 8 3.59375 8 8h16c0-10.414062-6.710938-19.214844-16-22.527344v-17.472656h-16v17.472656c-9.289062 3.3125-16 12.113282-16 22.527344 0 13.230469 10.769531 24 24 24 4.40625 0 8 3.59375 8 8s-3.59375 8-8 8-8-3.59375-8-8h-16c0 10.414062 6.710938 19.214844 16 22.527344v17.472656h16v-17.472656c9.289062-3.3125 16-12.113282 16-22.527344 0-13.230469-10.769531-24-24-24-4.40625 0-8-3.59375-8-8s3.59375-8 8-8zm0 0"/><path d="m408 208 85.335938-64-85.335938-64v32h-72v16h88v-16l42.664062 32-42.664062 32v-16h-120v16h104zm0 0"/><path d="m304 112h16v16h-16zm0 0"/><path d="m88 288-85.335938 64 85.335938 64v-32h72v-16h-88v16l-42.664062-32 42.664062-32v16h120v-16h-104zm0 0"/><path d="m176 368h16v16h-16zm0 0"/></svg>